<svg width="19" height="19" viewBox="0 0 19 19" fill="none" xmlns="http://www.w3.org/2000/svg">
<path fill-rule="evenodd" clip-rule="evenodd" d="M15 8.33333C15 12.0152 12.0152 15 8.33333 15C4.65143 15 1.66667 12.0152 1.66667 8.33333C1.66667 4.65143 4.65143 1.66667 8.33333 1.66667C12.0152 1.66667 15 4.65143 15 8.33333ZM13.5188 14.8572C12.0956 15.9899 10.2935 16.6667 8.33333 16.6667C3.73096 16.6667 0 12.9357 0 8.33333C0 3.73096 3.73096 0 8.33333 0C12.9357 0 16.6667 3.73096 16.6667 8.33333C16.6667 10.3815 15.9277 12.2571 14.7019 13.7081C14.7338 13.7314 14.7644 13.7572 14.7934 13.7854L18.5347 17.4328C18.8642 17.7541 18.8642 18.275 18.5347 18.5962C18.2051 18.9175 17.6708 18.9175 17.3413 18.5962L13.6 14.9489C13.5702 14.9199 13.5431 14.8892 13.5188 14.8572Z" fill="black"/>
</svg>
